<?xml version="1.0" encoding="utf-8"?>
<!-- Generator: Adobe Illustrator 22.1.0, SVG Export Plug-In . SVG Version: 6.00 Build 0)  -->
<svg version="1.1"
	 id="Layer_1" inkscape:export-filename="C:\Users\New-PC\Downloads\Stably Logo blue outer circle S and transparent background.png" inkscape:export-xdpi="188.18257" inkscape:export-ydpi="188.18257" inkscape:version="0.92.3 (2405546, 2018-03-11)" sodipodi:docname="Official Stably S with outer ring (blue).svg" xmlns:cc="http://creativecommons.org/ns#" xmlns:dc="http://purl.org/dc/elements/1.1/" xmlns:inkscape="http://www.inkscape.org/namespaces/inkscape" xmlns:rdf="http://www.w3.org/1999/02/22-rdf-syntax-ns#" xmlns:sodipodi="http://sodipodi.sourceforge.net/DTD/sodipodi-0.dtd" xmlns:svg="http://www.w3.org/2000/svg"
	 xmlns="http://www.w3.org/2000/svg" xmlns:xlink="http://www.w3.org/1999/xlink" x="0px" y="0px" viewBox="0 0 2746 714.2"
	 style="enable-background:new 0 0 2746 714.2;" xml:space="preserve">
<style type="text/css">
	.st0{fill:#0D2E47;}
</style>
<sodipodi:namedview  bordercolor="#666666" borderopacity="1" fit-margin-bottom="0" fit-margin-left="0" fit-margin-right="0" fit-margin-top="0" gridtolerance="10" guidetolerance="10" id="namedview3860" inkscape:current-layer="Layer_1" inkscape:cx="317.42568" inkscape:cy="266.81311" inkscape:pageopacity="0" inkscape:pageshadow="2" inkscape:window-height="1417" inkscape:window-maximized="1" inkscape:window-width="2498" inkscape:window-x="54" inkscape:window-y="-8" inkscape:zoom="1.3024562" objecttolerance="10" pagecolor="#ffffff" showgrid="false">
	</sodipodi:namedview>
<title  id="title3829">Stably Logo</title>
<path id="circle3831" inkscape:export-xdpi="188.17999" inkscape:export-ydpi="188.17999" class="st0" d="M357.1,0
	C159.9,0,0,159.9,0,357.1c0,197.2,159.9,357.1,357.1,357.1c197.2,0,357.1-159.9,357.1-357.1C714.2,159.9,554.3,0,357.1,0z
	 M357.1,46.9c171.3,0,310.2,138.9,310.2,310.2c0,0,0,0,0,0c0,171.3-138.9,310.2-310.2,310.2c0,0,0,0,0,0
	c-171.3,0-310.2-138.9-310.2-310.2c0,0,0,0,0,0C46.9,185.8,185.8,46.9,357.1,46.9C357.1,46.9,357.1,46.9,357.1,46.9z"/>
<g id="g844" transform="translate(217.15356,184.59605)" inkscape:export-xdpi="188.17999" inkscape:export-ydpi="188.17999">
	<path id="path3833" inkscape:connector-curvature="0" class="st0" d="M253.4,244c0.1,14-2.9,27.9-9,40.5c-6,12.4-14.6,23.3-25.3,32
		c-10.8,9-23.9,16-39.3,21s-32.3,7.5-51,7.5c-17.9,0-35.8-2-53.3-5.8c-17-3.6-33.6-9.2-49.3-16.8L40.9,269c13,6,26.4,10.9,40.3,14.5
		c14.9,4,30.3,6,45.8,6c16.7,0,30.3-3.4,40.8-10.3c10.5-6.8,15.8-16.8,15.8-29.8c0-12-5-21.8-15-29.5c-10-7.7-25.3-15.7-46-24
		c-13.4-5.4-26.4-11.6-39-18.8c-10.5-5.9-20.1-13.2-28.5-21.8c-7.5-7.8-13.5-16.8-17.8-26.8c-4.2-9.8-6.3-20.9-6.3-33.3
		c0-30.7,10.4-54.3,31.3-70.8S110.9,0,145.9,0c16.6-0.1,33.2,1.5,49.5,5c15.1,3.4,29.8,8.8,43.5,16l-13,53.5
		c-11.8-5.7-24.1-10.3-36.8-13.8c-12.8-3.5-26-5.3-39.3-5.3c-14.7,0-26.5,2.8-35.5,8.3s-13.5,14.1-13.5,25.8
		c-0.1,4.8,0.7,9.5,2.3,14c1.8,4.4,4.6,8.2,8.3,11.3c4.8,4.1,10.1,7.6,15.8,10.5c6.5,3.5,14.8,7.4,24.8,11.8
		c13.3,5.7,26.1,11.7,38.3,18c11.6,6,22.5,13.4,32.3,22c9.2,8.2,16.9,18,22.5,29C250.5,217,253.4,229.7,253.4,244L253.4,244z"/>
	<path id="path3835" inkscape:connector-curvature="0" class="st0" d="M0.3,202.1v-22.6h279.4v22.6H0.3z"/>
	<path id="path3837" inkscape:connector-curvature="0" class="st0" d="M0.3,164.1v-22.6h279.4v22.6H0.3z"/>
</g>
<path class="st0" d="M1155.9,408.8v26.7c0,24-4.4,44.2-13.1,60.6c-8.7,16.4-21.6,28.8-38.5,37.3c-17,8.5-35.5,14.5-55.6,18
	c-20.1,3.5-44,5.3-71.8,5.3c-38.5,0-86.2-3.7-143-11.2v-74c68.8,10.8,116.9,16.2,144.2,16.2c53.9,0,80.8-13.9,80.8-41.6V420
	c0-12-3.5-21.9-10.6-29.5c-7.1-7.7-21.1-11.5-42.3-11.5h-47.2c-88.7,0-133-35.2-133-105.7v-29.8c0-34.8,14.6-60.6,43.8-77.4
	c29.2-16.8,75.9-25.2,140.2-25.2c31.1,0,73.1,2.7,126.2,8.1v72.1c-63-7.5-106.1-11.2-129.3-11.2c-31.9,0-53.9,2.7-65.9,8.1
	c-12,5.4-18,14.5-18,27.4v28.6c0,21.1,17.8,31.7,53.5,31.7h48.5c47.2,0,80.9,8.7,101,26.1C1145.9,349.1,1155.9,374.8,1155.9,408.8z"
	/>
<path class="st0" d="M1411.1,553.6c-17.4,2.1-34.2,3.1-50.4,3.1c-14.1,0-26.4-0.5-37-1.6c-10.6-1-21.6-3.5-32.9-7.5
	c-11.4-3.9-20.7-9.1-28-15.5c-7.3-6.4-13.3-15.5-18-27.4c-4.8-11.8-7.1-25.8-7.1-42V305.6h-60.9v-55.9h60.9v-87h90.8v87h82.7v55.9
	h-82.7v141.7c0,20.7,3.1,34.7,9.3,42c6.2,7.3,19.9,10.9,41,10.9c7,0,17.8-1,32.3-3.1V553.6z"/>
<path class="st0" d="M1734.4,550.5h-88.9v-27.4c-6.6,12-16.2,20.6-28.6,25.8c-12.4,5.2-35.2,7.8-68.4,7.8
	c-40.6,0-67.6-6.2-80.8-18.6c-13.3-12.4-19.9-38.3-19.9-77.7c0-35.6,6.8-60.4,20.5-74.3c13.7-13.9,38.1-20.8,73.4-20.8h101.9v-20.5
	c0-18.2-4.3-30.4-12.7-36.4c-8.5-6-26.4-9-53.8-9c-25.7,0-60.9,2.5-105.7,7.5v-57.2c34.4-4.1,72.7-6.2,115-6.2
	c55.5,0,94.1,6.7,115.6,20.2c21.5,13.5,32.3,40.1,32.3,79.9V550.5z M1643.6,473.5V415h-62.2c-19.9,0-32.3,2.3-37.3,6.8
	c-5,4.6-7.5,16.8-7.5,36.7c0,19.5,2.6,31.3,7.8,35.4c5.2,4.1,18.3,6.2,39.5,6.2c10.4,0,18-0.1,23-0.3c5-0.2,10.4-0.7,16.2-1.6
	c5.8-0.8,9.8-2.2,12.1-4c2.3-1.9,4.2-4.4,5.9-7.8C1642.8,483.2,1643.6,478.8,1643.6,473.5z"/>
<path class="st0" d="M2095.3,344.8v98.8c0,41-12.3,70.1-37,87.3c-24.7,17.2-64.3,25.8-119,25.8c-57.6,0-97.4-9-119.4-27
	c-22-18-32.9-46.7-32.9-86.1V115.4h90.8v164.1c5.4-13.7,15.4-23.1,30.1-28.3c14.7-5.2,37.2-7.8,67.4-7.8c25.7,0,46.6,2.1,62.8,6.2
	c16.2,4.1,28.4,10.9,36.7,20.2c8.3,9.3,13.8,19.6,16.5,30.8C2093.9,311.8,2095.3,326.5,2095.3,344.8z M2004.5,455.4V344.2
	c0-19.5-3.6-31.8-10.9-37c-7.3-5.2-25.2-7.8-53.8-7.8c-25.7,0-42.5,3.3-50.4,9.9c-7.9,6.6-11.8,18.2-11.8,34.8v111.3
	c0,17.8,3.8,29.7,11.5,35.7c7.7,6,24.8,9,51.3,9c26.5,0,43.8-3,51.9-9C2000.5,485.2,2004.5,473.2,2004.5,455.4z"/>
<path class="st0" d="M2241.4,550.5h-90.8V115.4h90.8V550.5z"/>
<path class="st0" d="M2610.6,249.7l-164.7,430.2h-92l54.7-131.8l-120-298.4h98.8l67.8,212.6l61.5-212.6H2610.6z"/>
</svg>
